<?xml version="1.0" encoding="utf-8"?>
<!-- Generator: Adobe Illustrator 19.1.0, SVG Export Plug-In . SVG Version: 6.00 Build 0)  -->
<svg version="1.1" id="Layer_1" xmlns="http://www.w3.org/2000/svg" xmlns:xlink="http://www.w3.org/1999/xlink" x="0px" y="0px"
	 width="100%" height="100%" viewBox="0 0 200 200" style="enable-background:new 0 0 200 200;" xml:space="preserve">
<style type="text/css">
	.st0{fill: #fff;}
</style>
<g>
	<path class="st0" d="M70.4,44.7c0.9-0.9,1.9-1.8,3.2-2c1.4-0.2,2.8,0.9,3.1,2.2c0.1,0.4,0,0.9-0.2,1.3c-0.5,1.4-1.1,2.7-1.7,4.1
		C64.2,73.8,55.3,98,47.5,122.5c3.6-5.6,7.1-11.3,10.6-17c2.7-4.6,5.5-9.1,8.7-13.4c1.6-2,3.2-4.1,5.2-5.7c0.9-0.7,1.8-1.4,2.9-1.7
		c0.8-0.2,1.8-0.1,2.5,0.4c0.9,0.6,1.4,1.6,1.6,2.7c0.3,2-0.4,3.9-1.2,5.6c-2.4,5.6-4.8,11.2-6.8,16.9c-1,2.8-1.9,5.6-2.4,8.6
		c-0.1,1-0.3,2.1,0.1,3.1c0.2,0.5,0.6,0.9,1.1,0.7c1.1-0.2,1.9-1,2.6-1.7c1.9-2,3.3-4.3,4.8-6.5c0.1-0.2,0.3-0.5,0.3-0.8
		c0.2-7.9,1.8-15.7,4.8-22.9c0.8-1.9,1.7-3.8,2.9-5.5c0.7-0.9,1.6-1.9,2.8-2.1c1.3-0.2,2.5,0.4,3.5,1.1c0.7,0.6,1.4,1.2,1.8,2.1
		c0.3,0.7,0.2,1.6-0.4,2.2c-0.3,0.3-0.7,0.4-1,0.6c-2.6,6-4.7,12.2-6.2,18.6c-0.6,2.6-1.1,5.3-1.1,8c0,0.5,0.2,1.2,0.8,1.3
		c0.7,0,1.2-0.6,1.6-1.1c1.5-1.8,2.7-3.8,3.8-5.9c3.6-6.3,6.4-13.1,8.6-20c0.4-1.3,0.8-2.5,1-3.8c0.3-1.4,0.4-2.9,1-4.2
		c0.4-0.9,1-1.7,2-2.1c0.9-0.4,1.9-0.3,2.8-0.1c1.2,0.3,2.3,1,2.8,2.1c0.2,0.4,0.2,0.9,0.5,1.3c0.7,1,0.7,2.6-0.3,3.5
		c-0.4,0.4-0.9,0.6-1.1,1.1c-1.8,4-3.3,8.1-4.7,12.3c-1.8,5.7-3.4,11.5-4.8,17.3c-0.2,0.9-0.5,1.8-0.6,2.8c-0.9,6-1.8,12-2.8,18
		c-0.7,3.9-1.3,7.8-2.3,11.7c-0.4,1.4-0.7,2.9-1.8,3.9c-0.9,0.8-2.3,0.8-3.4,0.4c-0.7-0.3-1.5-0.6-2-1.2c-0.6-0.9-0.9-2-0.5-3.1
		c0.2-0.3,0.5-0.4,0.7-0.6c0.5-0.3,0.9-0.8,1.1-1.4c0.3-1,0.6-2.1,0.8-3.1c0.7-3.5,1.4-7.1,2-10.6c0.7-4.1,1.3-8.2,1.9-12.4
		c0.4-2.7,0.9-5.4,1.3-8.2c-1.1,2.4-2.3,4.7-3.9,6.8c-1.1,1.4-2.3,2.7-3.9,3.6c-1.1,0.6-2.4,0.8-3.6,0.3c-1.2-0.6-2.1-1.6-2.8-2.8
		c-0.1,0.1-0.2,0.1-0.2,0.2c-1.4,1.8-2.8,3.5-4.6,4.9c-1.5,1.2-3.4,1.9-5.3,2.1c-1.6,0.2-3.3-0.1-4.6-1c-1.2-0.9-1.9-2.3-2.3-3.7
		c-0.5-2.2-0.3-4.4,0-6.6c0.4-3.4,1.2-6.7,2.1-10c0.4-1.3,0.7-2.6,1.1-3.9c0,0-0.1,0-0.1,0c-1.9,3.3-3.8,6.7-5.6,10.1
		c-2.2,4.1-4.4,8.2-7.1,12c-1.3,1.9-2.8,3.8-4.5,5.4c-1,0.9-2.1,1.7-3.4,1.9c-1.3,0.1-2.7,0.1-3.8-0.6c-1-0.6-1.4-1.8-1.5-2.9v-1.9
		c0.1-1.3,0.4-2.6,0.6-3.9c1.1-5,2.5-9.8,4.1-14.7c5-15.7,10.9-31,17.1-46.2c1.8-4.5,3.7-9,6-13.3C67.9,48.1,69,46.3,70.4,44.7
		L70.4,44.7z"/>
	<path class="st0" d="M153.9,102.2c-0.2-0.3-0.5-0.7-1-0.7c-0.4,0.2-0.6,0.6-0.8,1c-0.6,1.3-1,2.7-1.6,4.1c-1.7,4.1-3.9,8-6.8,11.3
		c-1.2,1.3-2.5,2.6-4.1,3.3c-0.8,0.3-1.8,0.6-2.6,0.2c-0.8-0.4-1.2-1.3-1.5-2.1c-0.6-1.9-0.6-3.8-0.6-5.8c0-2.1,0.3-4.2,0.7-6.2
		c0,0,0.1,0,0.1,0c0.5,0.6,1.1,1.2,1.8,1.5c0.8,0.4,1.8,0.3,2.6,0c1.4-0.5,2.5-1.6,3.4-2.7c1.2-1.6,2.2-3.3,3-5.1
		c1.8-3.9,2.6-8.2,2.7-12.5c0.1-1.4-0.2-2.9-1.2-4c-0.8-0.9-1.9-1.2-2.9-1.6c-0.6-0.2-0.9-0.7-1.4-1c-0.7-0.5-1.7-0.8-2.5-0.6
		c-1.7,0.4-2.8,1.9-3.7,3.3c-1.3,2.2-2.3,4.5-3.3,6.8c-1.9,4.6-3.2,9.4-4.2,14.3c-0.8,4.3-1.3,8.6-0.7,13c0.3,2,0.9,4.1,2.4,5.6
		c1.2,1.2,2.8,1.8,4.5,1.8c2.2,0,4.3-0.7,6.1-1.9c2.3-1.6,4.1-3.8,5.7-6.1c1.9-2.8,3.6-5.7,4.9-8.8c0.6-1.4,1.2-2.9,1.5-4.4
		C154.5,104,154.4,103,153.9,102.2z M138.1,97c0.5-1.6,1.2-3.2,2-4.7c0.4-0.8,0.9-1.6,1.5-2.3c0.3-0.3,0.6-0.6,1.1-0.7
		c0.4-0.1,0.8,0.2,1,0.5c0.5,0.7,0.5,1.6,0.4,2.5c-0.1,2.1-0.4,4.2-1,6.2c-0.5,1.6-1,3.3-1.8,4.7c-0.4,0.6-0.8,1.3-1.5,1.6
		c-0.6,0.3-1.3,0-1.7-0.5c-0.5-0.7-0.7-1.7-0.8-2.6C137.2,100.2,137.6,98.6,138.1,97z"/>
	<path class="st0" d="M128.8,89.2c-0.6-1.5-1.4-3-2.6-4.1c-0.9-0.8-2.2-1.2-3.4-1c-1.6,0.4-2.7,1.6-3.7,2.8c-1.5,2-2.9,4.1-4.1,6.3
		c0.6-2.8,1.3-5.6,2.1-8.4c0.6-2.3,1.3-4.5,1.7-6.8c0.2-0.8,0-1.7-0.6-2.3c-0.6-0.7-1.5-1.3-2.4-1.2c-0.7,0.2-1.1,0.9-1.5,1.6
		c-1,1.9-1.7,3.9-2.3,5.9c-1.7,5.5-3,11.2-4.2,16.8c-1.2,5.1-2.3,10.1-3.4,15.2c-2.2,10.5-4.2,21-6,31.5c-0.6,3.5-1.2,7.1-1.5,10.7
		c-0.1,1.3-0.2,2.7,0.6,3.8c0.6,1,1.7,1.4,2.8,1.4c0.8,0,1.7,0,2.5-0.5c0.9-0.6,1.5-1.6,1.5-2.7c-0.2-0.5-0.7-0.9-0.9-1.4
		c-0.3-0.6-0.2-1.4-0.2-2c0.1-1.8,0.4-3.5,0.6-5.3c1.4-9,3.1-18,4.8-27c0.7,2,2.4,3.5,4.4,4.1c1.5,0.5,3.1,0.3,4.5-0.2
		c1.5-0.6,2.7-1.7,3.8-2.8c1.7-1.9,2.9-4.1,4-6.3c3-6.1,4.5-12.9,4.6-19.6C129.9,94.7,129.7,91.8,128.8,89.2z M124.1,101.4
		c-0.5,2.8-1.2,5.6-2,8.3c-0.8,2.4-1.6,4.7-2.7,7c-0.7,1.4-1.5,2.7-2.7,3.7c-0.9,0.7-2.1,1.1-3.3,0.9c-1.3-0.3-2.3-1.5-2.8-2.8
		c-0.2-0.6-0.4-1.3-0.2-1.9c1.9-7,4.3-14,8-20.3c0.7-1.2,1.5-2.4,2.4-3.5c0.5-0.5,1-1.1,1.8-1.2c0.5-0.1,0.9,0.2,1.2,0.6
		c0.4,0.6,0.5,1.2,0.6,1.9C124.7,96.4,124.4,98.9,124.1,101.4z"/>
	<path class="st0" d="M155.6,112.1c0.8-0.1,1.6,0.1,2.2,0.6c0.8,0.7,1.2,1.7,1.2,2.6c0.1,2.4-0.9,4.7-2.2,6.7
		c-0.6,0.9-1.3,1.9-2.4,2.3c-1,0.2-2,0.1-2.9-0.5c-0.7-0.5-1.2-1.3-1.4-2.1c-0.7-3.2,0.6-6.8,3.2-8.8
		C154,112.6,154.7,112.3,155.6,112.1L155.6,112.1z"/>
</g>
</svg>
